<svg width="460" height="220" viewBox="0 0 460 220" xmlns="http://www.w3.org/2000/svg">
  <style>
    .bg { fill: #05070a; }
    .label { font-family: 'Courier New', monospace; font-size: 12px; fill: #9fb3ad; }
    .stat { font-family: 'Courier New', monospace; font-size: 16px; fill: #7fe6a0; font-weight: bold; }
    .cell { animation: glow 3s ease-in-out infinite; }
    @keyframes glow {
      0%, 100% { opacity: 0.75; }
      50% { opacity: 1; }
    }
  </style>
  <rect class="bg" width="460" height="220" rx="10"/>
  <text x="20" y="18" class="label" letter-spacing="3">COMMIT ORBIT MAP  (placeholder — refreshed by GitHub Action)</text>
  <rect class="cell" x="20" y="30" width="11" height="11" rx="2" fill="#1c3326" style="animation-delay:0.00s"/><rect class="cell" x="20" y="44" width="11" height="11" rx="2" fill="#10151c" style="animation-delay:0.01s"/><rect class="cell" x="20" y="58" width="11" height="11" rx="2" fill="#2f5c3f" style="animation-delay:0.02s"/><rect class="cell" x="20" y="72" width="11" height="11" rx="2" fill="#10151c" style="animation-delay:0.03s"/><rect class="cell" x="20" y="86" width="11" height="11" rx="2" fill="#1c3326" style="animation-delay:0.04s"/><rect class="cell" x="20" y="100" width="11" height="11" rx="2" fill="#1c3326" style="animation-delay:0.05s"/><rect class="cell" x="20" y="114" width="11" height="11" rx="2" fill="#10151c" style="animation-delay:0.06s"/><rect class="cell" x="34" y="30" width="11" height="11" rx="2" fill="#1c3326" style="animation-delay:0.07s"/><rect class="cell" x="34" y="44" width="11" height="11" rx="2" fill="#10151c" style="animation-delay:0.08s"/><rect class="cell" x="34" y="58" width="11" height="11" rx="2" fill="#1c3326" style="animation-delay:0.09s"/><rect class="cell" x="34" y="72" width="11" height="11" rx="2" fill="#10151c" style="animation-delay:0.10s"/><rect class="cell" x="34" y="86" width="11" height="11" rx="2" fill="#10151c" style="animation-delay:0.11s"/><rect class="cell" x="34" y="100" width="11" height="11" rx="2" fill="#1c3326" style="animation-delay:0.12s"/><rect class="cell" x="34" y="114" width="11" height="11" rx="2" fill="#4d9e6a" style="animation-delay:0.13s"/><rect class="cell" x="48" y="30" width="11" height="11" rx="2" fill="#10151c" style="animation-delay:0.14s"/><rect class="cell" x="48" y="44" width="11" height="11" rx="2" fill="#10151c" style="animation-delay:0.15s"/><rect class="cell" x="48" y="58" width="11" height="11" rx="2" fill="#2f5c3f" style="animation-delay:0.16s"/><rect class="cell" x="48" y="72" width="11" height="11" rx="2" fill="#7fe6a0" style="animation-delay:0.17s"/><rect class="cell" x="48" y="86" width="11" height="11" rx="2" fill="#2f5c3f" style="animation-delay:0.18s"/><rect class="cell" x="48" y="100" width="11" height="11" rx="2" fill="#1c3326" style="animation-delay:0.19s"/><rect class="cell" x="48" y="114" width="11" height="11" rx="2" fill="#7fe6a0" style="animation-delay:0.20s"/><rect class="cell" x="62" y="30" width="11" height="11" rx="2" fill="#10151c" style="animation-delay:0.21s"/><rect class="cell" x="62" y="44" width="11" height="11" rx="2" fill="#4d9e6a" style="animation-delay:0.22s"/><rect class="cell" x="62" y="58" width="11" height="11" rx="2" fill="#1c3326" style="animation-delay:0.23s"/><rect class="cell" x="62" y="72" width="11" height="11" rx="2" fill="#10151c" style="animation-delay:0.24s"/><rect class="cell" x="62" y="86" width="11" height="11" rx="2" fill="#10151c" style="animation-delay:0.25s"/><rect class="cell" x="62" y="100" width="11" height="11" rx="2" fill="#1c3326" style="animation-delay:0.26s"/><rect class="cell" x="62" y="114" width="11" height="11" rx="2" fill="#4d9e6a" style="animation-delay:0.27s"/><rect class="cell" x="76" y="30" width="11" height="11" rx="2" fill="#10151c" style="animation-delay:0.28s"/><rect class="cell" x="76" y="44" width="11" height="11" rx="2" fill="#2f5c3f" style="animation-delay:0.29s"/><rect class="cell" x="76" y="58" width="11" height="11" rx="2" fill="#2f5c3f" style="animation-delay:0.30s"/><rect class="cell" x="76" y="72" width="11" height="11" rx="2" fill="#1c3326" style="animation-delay:0.31s"/><rect class="cell" x="76" y="86" width="11" height="11" rx="2" fill="#2f5c3f" style="animation-delay:0.32s"/><rect class="cell" x="76" y="100" width="11" height="11" rx="2" fill="#10151c" style="animation-delay:0.33s"/><rect class="cell" x="76" y="114" width="11" height="11" rx="2" fill="#10151c" style="animation-delay:0.34s"/><rect class="cell" x="90" y="30" width="11" height="11" rx="2" fill="#10151c" style="animation-delay:0.35s"/><rect class="cell" x="90" y="44" width="11" height="11" rx="2" fill="#2f5c3f" style="animation-delay:0.36s"/><rect class="cell" x="90" y="58" width="11" height="11" rx="2" fill="#1c3326" style="animation-delay:0.37s"/><rect class="cell" x="90" y="72" width="11" height="11" rx="2" fill="#1c3326" style="animation-delay:0.38s"/><rect class="cell" x="90" y="86" width="11" height="11" rx="2" fill="#2f5c3f" style="animation-delay:0.39s"/><rect class="cell" x="90" y="100" width="11" height="11" rx="2" fill="#1c3326" style="animation-delay:0.40s"/><rect class="cell" x="90" y="114" width="11" height="11" rx="2" fill="#1c3326" style="animation-delay:0.41s"/><rect class="cell" x="104" y="30" width="11" height="11" rx="2" fill="#4d9e6a" style="animation-delay:0.42s"/><rect class="cell" x="104" y="44" width="11" height="11" rx="2" fill="#2f5c3f" style="animation-delay:0.43s"/><rect class="cell" x="104" y="58" width="11" height="11" rx="2" fill="#10151c" style="animation-delay:0.44s"/><rect class="cell" x="104" y="72" width="11" height="11" rx="2" fill="#2f5c3f" style="animation-delay:0.45s"/><rect class="cell" x="104" y="86" width="11" height="11" rx="2" fill="#1c3326" style="animation-delay:0.46s"/><rect class="cell" x="104" y="100" width="11" height="11" rx="2" fill="#4d9e6a" style="animation-delay:0.47s"/><rect class="cell" x="104" y="114" width="11" height="11" rx="2" fill="#4d9e6a" style="animation-delay:0.48s"/><rect class="cell" x="118" y="30" width="11" height="11" rx="2" fill="#1c3326" style="animation-delay:0.49s"/><rect class="cell" x="118" y="44" width="11" height="11" rx="2" fill="#7fe6a0" style="animation-delay:0.50s"/><rect class="cell" x="118" y="58" width="11" height="11" rx="2" fill="#10151c" style="animation-delay:0.51s"/><rect class="cell" x="118" y="72" width="11" height="11" rx="2" fill="#1c3326" style="animation-delay:0.52s"/><rect class="cell" x="118" y="86" width="11" height="11" rx="2" fill="#4d9e6a" style="animation-delay:0.53s"/><rect class="cell" x="118" y="100" width="11" height="11" rx="2" fill="#10151c" style="animation-delay:0.54s"/><rect class="cell" x="118" y="114" width="11" height="11" rx="2" fill="#1c3326" style="animation-delay:0.55s"/><rect class="cell" x="132" y="30" width="11" height="11" rx="2" fill="#10151c" style="animation-delay:0.56s"/><rect class="cell" x="132" y="44" width="11" height="11" rx="2" fill="#2f5c3f" style="animation-delay:0.57s"/><rect class="cell" x="132" y="58" width="11" height="11" rx="2" fill="#4d9e6a" style="animation-delay:0.58s"/><rect class="cell" x="132" y="72" width="11" height="11" rx="2" fill="#2f5c3f" style="animation-delay:0.59s"/><rect class="cell" x="132" y="86" width="11" height="11" rx="2" fill="#4d9e6a" style="animation-delay:0.60s"/><rect class="cell" x="132" y="100" width="11" height="11" rx="2" fill="#1c3326" style="animation-delay:0.61s"/><rect class="cell" x="132" y="114" width="11" height="11" rx="2" fill="#2f5c3f" style="animation-delay:0.62s"/><rect class="cell" x="146" y="30" width="11" height="11" rx="2" fill="#2f5c3f" style="animation-delay:0.63s"/><rect class="cell" x="146" y="44" width="11" height="11" rx="2" fill="#2f5c3f" style="animation-delay:0.64s"/><rect class="cell" x="146" y="58" width="11" height="11" rx="2" fill="#1c3326" style="animation-delay:0.65s"/><rect class="cell" x="146" y="72" width="11" height="11" rx="2" fill="#4d9e6a" style="animation-delay:0.66s"/><rect class="cell" x="146" y="86" width="11" height="11" rx="2" fill="#7fe6a0" style="animation-delay:0.67s"/><rect class="cell" x="146" y="100" width="11" height="11" rx="2" fill="#1c3326" style="animation-delay:0.68s"/><rect class="cell" x="146" y="114" width="11" height="11" rx="2" fill="#2f5c3f" style="animation-delay:0.69s"/><rect class="cell" x="160" y="30" width="11" height="11" rx="2" fill="#10151c" style="animation-delay:0.70s"/><rect class="cell" x="160" y="44" width="11" height="11" rx="2" fill="#2f5c3f" style="animation-delay:0.71s"/><rect class="cell" x="160" y="58" width="11" height="11" rx="2" fill="#2f5c3f" style="animation-delay:0.72s"/><rect class="cell" x="160" y="72" width="11" height="11" rx="2" fill="#7fe6a0" style="animation-delay:0.73s"/><rect class="cell" x="160" y="86" width="11" height="11" rx="2" fill="#4d9e6a" style="animation-delay:0.74s"/><rect class="cell" x="160" y="100" width="11" height="11" rx="2" fill="#1c3326" style="animation-delay:0.75s"/><rect class="cell" x="160" y="114" width="11" height="11" rx="2" fill="#1c3326" style="animation-delay:0.76s"/><rect class="cell" x="174" y="30" width="11" height="11" rx="2" fill="#2f5c3f" style="animation-delay:0.77s"/><rect class="cell" x="174" y="44" width="11" height="11" rx="2" fill="#10151c" style="animation-delay:0.78s"/><rect class="cell" x="174" y="58" width="11" height="11" rx="2" fill="#1c3326" style="animation-delay:0.79s"/><rect class="cell" x="174" y="72" width="11" height="11" rx="2" fill="#10151c" style="animation-delay:0.80s"/><rect class="cell" x="174" y="86" width="11" height="11" rx="2" fill="#10151c" style="animation-delay:0.81s"/><rect class="cell" x="174" y="100" width="11" height="11" rx="2" fill="#10151c" style="animation-delay:0.82s"/><rect class="cell" x="174" y="114" width="11" height="11" rx="2" fill="#4d9e6a" style="animation-delay:0.83s"/><rect class="cell" x="188" y="30" width="11" height="11" rx="2" fill="#10151c" style="animation-delay:0.84s"/><rect class="cell" x="188" y="44" width="11" height="11" rx="2" fill="#10151c" style="animation-delay:0.85s"/><rect class="cell" x="188" y="58" width="11" height="11" rx="2" fill="#1c3326" style="animation-delay:0.86s"/><rect class="cell" x="188" y="72" width="11" height="11" rx="2" fill="#4d9e6a" style="animation-delay:0.87s"/><rect class="cell" x="188" y="86" width="11" height="11" rx="2" fill="#10151c" style="animation-delay:0.88s"/><rect class="cell" x="188" y="100" width="11" height="11" rx="2" fill="#1c3326" style="animation-delay:0.89s"/><rect class="cell" x="188" y="114" width="11" height="11" rx="2" fill="#2f5c3f" style="animation-delay:0.90s"/><rect class="cell" x="202" y="30" width="11" height="11" rx="2" fill="#4d9e6a" style="animation-delay:0.91s"/><rect class="cell" x="202" y="44" width="11" height="11" rx="2" fill="#4d9e6a" style="animation-delay:0.92s"/><rect class="cell" x="202" y="58" width="11" height="11" rx="2" fill="#4d9e6a" style="animation-delay:0.93s"/><rect class="cell" x="202" y="72" width="11" height="11" rx="2" fill="#1c3326" style="animation-delay:0.94s"/><rect class="cell" x="202" y="86" width="11" height="11" rx="2" fill="#1c3326" style="animation-delay:0.95s"/><rect class="cell" x="202" y="100" width="11" height="11" rx="2" fill="#1c3326" style="animation-delay:0.96s"/><rect class="cell" x="202" y="114" width="11" height="11" rx="2" fill="#4d9e6a" style="animation-delay:0.97s"/><rect class="cell" x="216" y="30" width="11" height="11" rx="2" fill="#7fe6a0" style="animation-delay:0.98s"/><rect class="cell" x="216" y="44" width="11" height="11" rx="2" fill="#10151c" style="animation-delay:0.99s"/><rect class="cell" x="216" y="58" width="11" height="11" rx="2" fill="#10151c" style="animation-delay:1.00s"/><rect class="cell" x="216" y="72" width="11" height="11" rx="2" fill="#10151c" style="animation-delay:1.01s"/><rect class="cell" x="216" y="86" width="11" height="11" rx="2" fill="#10151c" style="animation-delay:1.02s"/><rect class="cell" x="216" y="100" width="11" height="11" rx="2" fill="#1c3326" style="animation-delay:1.03s"/><rect class="cell" x="216" y="114" width="11" height="11" rx="2" fill="#2f5c3f" style="animation-delay:1.04s"/><rect class="cell" x="230" y="30" width="11" height="11" rx="2" fill="#10151c" style="animation-delay:1.05s"/><rect class="cell" x="230" y="44" width="11" height="11" rx="2" fill="#10151c" style="animation-delay:1.06s"/><rect class="cell" x="230" y="58" width="11" height="11" rx="2" fill="#1c3326" style="animation-delay:1.07s"/><rect class="cell" x="230" y="72" width="11" height="11" rx="2" fill="#1c3326" style="animation-delay:1.08s"/><rect class="cell" x="230" y="86" width="11" height="11" rx="2" fill="#2f5c3f" style="animation-delay:1.09s"/><rect class="cell" x="230" y="100" width="11" height="11" rx="2" fill="#7fe6a0" style="animation-delay:1.10s"/><rect class="cell" x="230" y="114" width="11" height="11" rx="2" fill="#2f5c3f" style="animation-delay:1.11s"/><rect class="cell" x="244" y="30" width="11" height="11" rx="2" fill="#1c3326" style="animation-delay:1.12s"/><rect class="cell" x="244" y="44" width="11" height="11" rx="2" fill="#2f5c3f" style="animation-delay:1.13s"/><rect class="cell" x="244" y="58" width="11" height="11" rx="2" fill="#2f5c3f" style="animation-delay:1.14s"/><rect class="cell" x="244" y="72" width="11" height="11" rx="2" fill="#10151c" style="animation-delay:1.15s"/><rect class="cell" x="244" y="86" width="11" height="11" rx="2" fill="#4d9e6a" style="animation-delay:1.16s"/><rect class="cell" x="244" y="100" width="11" height="11" rx="2" fill="#4d9e6a" style="animation-delay:1.17s"/><rect class="cell" x="244" y="114" width="11" height="11" rx="2" fill="#4d9e6a" style="animation-delay:1.18s"/><rect class="cell" x="258" y="30" width="11" height="11" rx="2" fill="#4d9e6a" style="animation-delay:1.19s"/><rect class="cell" x="258" y="44" width="11" height="11" rx="2" fill="#1c3326" style="animation-delay:1.20s"/><rect class="cell" x="258" y="58" width="11" height="11" rx="2" fill="#1c3326" style="animation-delay:1.21s"/><rect class="cell" x="258" y="72" width="11" height="11" rx="2" fill="#10151c" style="animation-delay:1.22s"/><rect class="cell" x="258" y="86" width="11" height="11" rx="2" fill="#2f5c3f" style="animation-delay:1.23s"/><rect class="cell" x="258" y="100" width="11" height="11" rx="2" fill="#10151c" style="animation-delay:1.24s"/><rect class="cell" x="258" y="114" width="11" height="11" rx="2" fill="#10151c" style="animation-delay:1.25s"/><rect class="cell" x="272" y="30" width="11" height="11" rx="2" fill="#10151c" style="animation-delay:1.26s"/><rect class="cell" x="272" y="44" width="11" height="11" rx="2" fill="#10151c" style="animation-delay:1.27s"/><rect class="cell" x="272" y="58" width="11" height="11" rx="2" fill="#1c3326" style="animation-delay:1.28s"/><rect class="cell" x="272" y="72" width="11" height="11" rx="2" fill="#10151c" style="animation-delay:1.29s"/><rect class="cell" x="272" y="86" width="11" height="11" rx="2" fill="#10151c" style="animation-delay:1.30s"/><rect class="cell" x="272" y="100" width="11" height="11" rx="2" fill="#10151c" style="animation-delay:1.31s"/><rect class="cell" x="272" y="114" width="11" height="11" rx="2" fill="#10151c" style="animation-delay:1.32s"/><rect class="cell" x="286" y="30" width="11" height="11" rx="2" fill="#1c3326" style="animation-delay:1.33s"/><rect class="cell" x="286" y="44" width="11" height="11" rx="2" fill="#10151c" style="animation-delay:1.34s"/><rect class="cell" x="286" y="58" width="11" height="11" rx="2" fill="#4d9e6a" style="animation-delay:1.35s"/><rect class="cell" x="286" y="72" width="11" height="11" rx="2" fill="#2f5c3f" style="animation-delay:1.36s"/><rect class="cell" x="286" y="86" width="11" height="11" rx="2" fill="#10151c" style="animation-delay:1.37s"/><rect class="cell" x="286" y="100" width="11" height="11" rx="2" fill="#10151c" style="animation-delay:1.38s"/><rect class="cell" x="286" y="114" width="11" height="11" rx="2" fill="#1c3326" style="animation-delay:1.39s"/><rect class="cell" x="300" y="30" width="11" height="11" rx="2" fill="#1c3326" style="animation-delay:1.40s"/><rect class="cell" x="300" y="44" width="11" height="11" rx="2" fill="#10151c" style="animation-delay:1.41s"/><rect class="cell" x="300" y="58" width="11" height="11" rx="2" fill="#4d9e6a" style="animation-delay:1.42s"/><rect class="cell" x="300" y="72" width="11" height="11" rx="2" fill="#7fe6a0" style="animation-delay:1.43s"/><rect class="cell" x="300" y="86" width="11" height="11" rx="2" fill="#1c3326" style="animation-delay:1.44s"/><rect class="cell" x="300" y="100" width="11" height="11" rx="2" fill="#1c3326" style="animation-delay:1.45s"/><rect class="cell" x="300" y="114" width="11" height="11" rx="2" fill="#10151c" style="animation-delay:1.46s"/><rect class="cell" x="314" y="30" width="11" height="11" rx="2" fill="#10151c" style="animation-delay:1.47s"/><rect class="cell" x="314" y="44" width="11" height="11" rx="2" fill="#1c3326" style="animation-delay:1.48s"/><rect class="cell" x="314" y="58" width="11" height="11" rx="2" fill="#10151c" style="animation-delay:1.49s"/><rect class="cell" x="314" y="72" width="11" height="11" rx="2" fill="#4d9e6a" style="animation-delay:1.50s"/><rect class="cell" x="314" y="86" width="11" height="11" rx="2" fill="#10151c" style="animation-delay:1.51s"/><rect class="cell" x="314" y="100" width="11" height="11" rx="2" fill="#10151c" style="animation-delay:1.52s"/><rect class="cell" x="314" y="114" width="11" height="11" rx="2" fill="#7fe6a0" style="animation-delay:1.53s"/><rect class="cell" x="328" y="30" width="11" height="11" rx="2" fill="#1c3326" style="animation-delay:1.54s"/><rect class="cell" x="328" y="44" width="11" height="11" rx="2" fill="#10151c" style="animation-delay:1.55s"/><rect class="cell" x="328" y="58" width="11" height="11" rx="2" fill="#1c3326" style="animation-delay:1.56s"/><rect class="cell" x="328" y="72" width="11" height="11" rx="2" fill="#10151c" style="animation-delay:1.57s"/><rect class="cell" x="328" y="86" width="11" height="11" rx="2" fill="#1c3326" style="animation-delay:1.58s"/><rect class="cell" x="328" y="100" width="11" height="11" rx="2" fill="#7fe6a0" style="animation-delay:1.59s"/><rect class="cell" x="328" y="114" width="11" height="11" rx="2" fill="#4d9e6a" style="animation-delay:1.60s"/><rect class="cell" x="342" y="30" width="11" height="11" rx="2" fill="#2f5c3f" style="animation-delay:1.61s"/><rect class="cell" x="342" y="44" width="11" height="11" rx="2" fill="#10151c" style="animation-delay:1.62s"/><rect class="cell" x="342" y="58" width="11" height="11" rx="2" fill="#1c3326" style="animation-delay:1.63s"/><rect class="cell" x="342" y="72" width="11" height="11" rx="2" fill="#10151c" style="animation-delay:1.64s"/><rect class="cell" x="342" y="86" width="11" height="11" rx="2" fill="#4d9e6a" style="animation-delay:1.65s"/><rect class="cell" x="342" y="100" width="11" height="11" rx="2" fill="#1c3326" style="animation-delay:1.66s"/><rect class="cell" x="342" y="114" width="11" height="11" rx="2" fill="#4d9e6a" style="animation-delay:1.67s"/><rect class="cell" x="356" y="30" width="11" height="11" rx="2" fill="#1c3326" style="animation-delay:1.68s"/><rect class="cell" x="356" y="44" width="11" height="11" rx="2" fill="#10151c" style="animation-delay:1.69s"/><rect class="cell" x="356" y="58" width="11" height="11" rx="2" fill="#4d9e6a" style="animation-delay:1.70s"/><rect class="cell" x="356" y="72" width="11" height="11" rx="2" fill="#7fe6a0" style="animation-delay:1.71s"/><rect class="cell" x="356" y="86" width="11" height="11" rx="2" fill="#4d9e6a" style="animation-delay:1.72s"/><rect class="cell" x="356" y="100" width="11" height="11" rx="2" fill="#4d9e6a" style="animation-delay:1.73s"/><rect class="cell" x="356" y="114" width="11" height="11" rx="2" fill="#4d9e6a" style="animation-delay:1.74s"/><rect class="cell" x="370" y="30" width="11" height="11" rx="2" fill="#4d9e6a" style="animation-delay:1.75s"/><rect class="cell" x="370" y="44" width="11" height="11" rx="2" fill="#10151c" style="animation-delay:1.76s"/><rect class="cell" x="370" y="58" width="11" height="11" rx="2" fill="#1c3326" style="animation-delay:1.77s"/><rect class="cell" x="370" y="72" width="11" height="11" rx="2" fill="#1c3326" style="animation-delay:1.78s"/><rect class="cell" x="370" y="86" width="11" height="11" rx="2" fill="#10151c" style="animation-delay:1.79s"/><rect class="cell" x="370" y="100" width="11" height="11" rx="2" fill="#10151c" style="animation-delay:1.80s"/><rect class="cell" x="370" y="114" width="11" height="11" rx="2" fill="#1c3326" style="animation-delay:1.81s"/><rect class="cell" x="384" y="30" width="11" height="11" rx="2" fill="#10151c" style="animation-delay:1.82s"/><rect class="cell" x="384" y="44" width="11" height="11" rx="2" fill="#2f5c3f" style="animation-delay:1.83s"/><rect class="cell" x="384" y="58" width="11" height="11" rx="2" fill="#7fe6a0" style="animation-delay:1.84s"/><rect class="cell" x="384" y="72" width="11" height="11" rx="2" fill="#1c3326" style="animation-delay:1.85s"/><rect class="cell" x="384" y="86" width="11" height="11" rx="2" fill="#7fe6a0" style="animation-delay:1.86s"/><rect class="cell" x="384" y="100" width="11" height="11" rx="2" fill="#7fe6a0" style="animation-delay:1.87s"/><rect class="cell" x="384" y="114" width="11" height="11" rx="2" fill="#7fe6a0" style="animation-delay:1.88s"/><rect class="cell" x="398" y="30" width="11" height="11" rx="2" fill="#1c3326" style="animation-delay:1.89s"/><rect class="cell" x="398" y="44" width="11" height="11" rx="2" fill="#10151c" style="animation-delay:1.90s"/><rect class="cell" x="398" y="58" width="11" height="11" rx="2" fill="#10151c" style="animation-delay:1.91s"/><rect class="cell" x="398" y="72" width="11" height="11" rx="2" fill="#10151c" style="animation-delay:1.92s"/><rect class="cell" x="398" y="86" width="11" height="11" rx="2" fill="#10151c" style="animation-delay:1.93s"/><rect class="cell" x="398" y="100" width="11" height="11" rx="2" fill="#2f5c3f" style="animation-delay:1.94s"/><rect class="cell" x="398" y="114" width="11" height="11" rx="2" fill="#4d9e6a" style="animation-delay:1.95s"/><rect class="cell" x="412" y="30" width="11" height="11" rx="2" fill="#4d9e6a" style="animation-delay:1.96s"/><rect class="cell" x="412" y="44" width="11" height="11" rx="2" fill="#1c3326" style="animation-delay:1.97s"/><rect class="cell" x="412" y="58" width="11" height="11" rx="2" fill="#2f5c3f" style="animation-delay:1.98s"/><rect class="cell" x="412" y="72" width="11" height="11" rx="2" fill="#4d9e6a" style="animation-delay:1.99s"/><rect class="cell" x="412" y="86" width="11" height="11" rx="2" fill="#10151c" style="animation-delay:2.00s"/><rect class="cell" x="412" y="100" width="11" height="11" rx="2" fill="#2f5c3f" style="animation-delay:2.01s"/><rect class="cell" x="412" y="114" width="11" height="11" rx="2" fill="#7fe6a0" style="animation-delay:2.02s"/><rect class="cell" x="426" y="30" width="11" height="11" rx="2" fill="#4d9e6a" style="animation-delay:2.03s"/><rect class="cell" x="426" y="44" width="11" height="11" rx="2" fill="#4d9e6a" style="animation-delay:2.04s"/><rect class="cell" x="426" y="58" width="11" height="11" rx="2" fill="#1c3326" style="animation-delay:2.05s"/><rect class="cell" x="426" y="72" width="11" height="11" rx="2" fill="#10151c" style="animation-delay:2.06s"/><rect class="cell" x="426" y="86" width="11" height="11" rx="2" fill="#4d9e6a" style="animation-delay:2.07s"/><rect class="cell" x="426" y="100" width="11" height="11" rx="2" fill="#1c3326" style="animation-delay:2.08s"/><rect class="cell" x="426" y="114" width="11" height="11" rx="2" fill="#4d9e6a" style="animation-delay:2.09s"/>
  <text x="20" y="195" class="label">TOTAL CONTRIBUTIONS</text>
  <text x="20" y="215" class="stat">301</text>
  <text x="230" y="195" class="label">CURRENT STREAK</text>
  <text x="230" y="215" class="stat">6d</text>
  <text x="400" y="195" class="label">LONGEST STREAK</text>
  <text x="400" y="215" class="stat">21d</text>
</svg>